<svg xmlns="http://www.w3.org/2000/svg" width="24" height="24" viewBox="0 0 24 24" fill="#D04100">
  <path fill-rule="evenodd" d="M12,9c-1.658,0-3,1.344-3,3c0,1.658,1.342,3,3,3s3-1.342,3-3 C15,10.344,13.658,9,12,9L12,9z M5,13h2v-2H5V9l-3,3l3,3V13L5,13z M13,19v-2h-2v2H9l3,3l3-3H13L13,19z M19,13h-2v-2h2V9l3,3l-3,3V13 L19,13z M13,5v2h-2V5H9l3-3l3,3H13L13,5z M6.707,8.121L5.293,6.707L4,8V4h4L6.707,5.293l1.414,1.414L6.707,8.121L6.707,8.121z M8.121,17.293l-1.414,1.414L8,20H4v-4l1.293,1.293l1.414-1.414L8.121,17.293L8.121,17.293z M17.293,15.877l1.414,1.416L20,16v4h-4 l1.293-1.293l-1.414-1.414L17.293,15.877L17.293,15.877z M15.879,6.707l1.414-1.414L16,4h4v4l-1.293-1.293l-1.414,1.414 L15.879,6.707z" clip-rule="evenodd"/>
</svg>