<svg xmlns="http://www.w3.org/2000/svg" width="24" height="24" viewBox="0 0 24 24" fill="#D04100">
  <path fill-rule="evenodd" d="M22.742,9.171L19.914,12l2.828,2.83l-1.414,1.414l-2.828-2.83l-2.828,2.83 l-1.414-1.414L17.086,12l-2.83-2.828l1.414-1.414l2.83,2.829l2.828-2.83L22.742,9.171L22.742,9.171z M2,3.011v1.98h4v4.01h2v-3.99 c0-1.11-0.899-2-2-2H2L2,3.011z M6,15.002v4.02H2L2,20.992L6,20.99c1.1,0,2-0.879,2-1.979v-4.01H6L6,15.002z M10,16.002L10,16.002 v-3H3v-2h7v-3L14,12L10,16.002z" clip-rule="evenodd"/>
</svg>