<svg xmlns="http://www.w3.org/2000/svg" width="24" height="24" viewBox="0 0 24 24" fill="#D04100">
  <path fill-rule="evenodd" d="M15.499,19h-2.5L13,13h-1.999v6.002H8.499l3.501,3.5L15.499,19L15.499,19z M13,11V5h2.499L12,1.502L8.499,5h2.503l-0.001,6H13L13,11z M20,8l-1.397-1.396C17.292,7.686,16.382,9.238,16.13,11h-2.016 c0.256-2.318,1.394-4.371,3.069-5.816L16,4h4V8L20,8z M16.13,13c0.253,1.764,1.162,3.314,2.473,4.398L20,16v4h-4l1.184-1.182 c-1.676-1.447-2.813-3.5-3.069-5.818H16.13L16.13,13z M7.999,20h-4v-4l1.424,1.424C6.751,16.34,7.673,14.779,7.928,13h2.016 c-0.259,2.334-1.408,4.396-3.101,5.844L7.999,20L7.999,20z M9.944,11H7.928C7.673,9.223,6.751,7.66,5.423,6.576L3.999,8V4h4 L6.843,5.156C8.536,6.604,9.686,8.668,9.944,11z" clip-rule="evenodd"/>
</svg>