<svg xmlns="http://www.w3.org/2000/svg" width="24" height="24" viewBox="0 0 24 24" fill="#D04100">
  <path fill-rule="evenodd" d="M10.586,13.418c-0.777-0.777-0.777-2.051,0-2.828s2.051-0.777,2.828,0 c0.779,0.777,0.779,2.051,0,2.828C12.637,14.197,11.363,14.197,10.586,13.418L10.586,13.418z M5.637,5.641 c-3.516,3.514-3.516,9.213,0,12.727c3.514,3.516,9.213,3.516,12.727,0c1.457-1.455,2.307-3.295,2.561-5.189L18.9,13.164 c-0.238,1.387-0.883,2.723-1.951,3.789c-2.736,2.736-7.162,2.736-9.898,0s-2.736-7.162,0-9.898c2.652-2.652,6.893-2.734,9.643-0.244 L14.504,9L20.5,8.992L20.504,3l-2.395,2.395C14.578,2.129,9.066,2.209,5.637,5.641z" clip-rule="evenodd"/>
</svg>