<svg xmlns="http://www.w3.org/2000/svg" width="24" height="24" viewBox="0 0 24 24" fill="#D04100">
  <path fill-rule="evenodd" d="M15.712,8.287C14.525,7.1,13.257,6.131,12,5.406 C10.744,6.131,9.475,7.1,8.288,8.287C7.1,9.475,6.131,10.744,5.406,12c0.725,1.256,1.694,2.525,2.881,3.713 C9.475,16.9,10.744,17.869,12,18.594c1.257-0.725,2.525-1.693,3.712-2.881C16.9,14.525,17.87,13.256,18.594,12 C17.869,10.744,16.9,9.475,15.712,8.287L15.712,8.287z M12,8c2.209,0,4,1.791,4,4s-1.791,4-4,4s-4-1.791-4-4S9.791,8,12,8L12,8z M10.421,4.621C9.329,5.334,8.247,6.207,7.228,7.227c-1.02,1.021-1.894,2.102-2.606,3.195c-0.16-0.385-0.294-0.762-0.403-1.133 C3.656,7.379,3.79,5.715,4.752,4.752s2.626-1.096,4.537-0.533C9.659,4.326,10.038,4.461,10.421,4.621L10.421,4.621z M13.579,19.379 c1.092-0.713,2.174-1.586,3.194-2.605c1.02-1.02,1.893-2.102,2.606-3.193c0.16,0.383,0.294,0.76,0.403,1.131 c0.562,1.912,0.428,3.574-0.534,4.537s-2.626,1.096-4.537,0.535C14.34,19.674,13.962,19.539,13.579,19.379L13.579,19.379z M12,3.705 c0.777-0.395,1.546-0.703,2.289-0.922c2.439-0.719,4.639-0.471,6.019,0.908c1.38,1.381,1.626,3.58,0.91,6.02 c-0.219,0.744-0.528,1.512-0.923,2.289c0.395,0.777,0.704,1.545,0.923,2.289c0.717,2.439,0.471,4.639-0.91,6.02 c-1.38,1.381-3.58,1.627-6.019,0.91C13.546,21,12.777,20.689,12,20.295c-0.777,0.395-1.546,0.705-2.289,0.924 c-2.439,0.717-4.639,0.471-6.02-0.91c-1.38-1.381-1.626-3.58-0.909-6.02C3.001,13.545,3.311,12.777,3.705,12 c-0.395-0.777-0.704-1.545-0.923-2.289c-0.717-2.439-0.471-4.639,0.909-6.02c1.38-1.379,3.58-1.627,6.02-0.908 C10.454,3.002,11.223,3.311,12,3.705L12,3.705z M14.711,4.219c1.911-0.563,3.575-0.43,4.537,0.533s1.096,2.627,0.534,4.537 c-0.109,0.371-0.244,0.748-0.403,1.133c-0.713-1.094-1.587-2.176-2.606-3.195c-1.02-1.018-2.102-1.893-3.194-2.605 C13.962,4.461,14.341,4.326,14.711,4.219L14.711,4.219z M4.621,13.58c0.713,1.092,1.587,2.174,2.606,3.193 c1.019,1.02,2.101,1.893,3.193,2.605c-0.383,0.16-0.762,0.295-1.132,0.404c-1.911,0.561-3.575,0.428-4.537-0.535 s-1.096-2.625-0.534-4.537C4.327,14.342,4.461,13.963,4.621,13.58z" clip-rule="evenodd"/>
</svg>