<svg xmlns="http://www.w3.org/2000/svg" width="24" height="24" viewBox="0 0 24 24" fill="#D04100">
  <path fill-rule="evenodd" d="M6.005,8.5c1.38,0,2.5-1.12,2.5-2.501c0-1.38-1.12-2.5-2.5-2.5 c-1.381,0-2.5,1.12-2.5,2.5C3.505,7.38,4.624,8.5,6.005,8.5L6.005,8.5z M21.067,17.352L19.418,19l1.649,1.65l-1.414,1.414 l-1.649-1.65l-1.648,1.65l-1.414-1.414L16.591,19l-1.65-1.648l1.414-1.414l1.649,1.648l1.649-1.648L21.067,17.352L21.067,17.352z M14,11h3V7c0-1.1-0.9-2-2-2c-1.101,0-2,0.9-2,2v10c0,2.211-1.79,4-4,4s-4-1.789-4-4v-6h2v6c0,1.1,0.9,2,2,2c1.101,0,2-0.9,2-2V7 c0-2.209,1.79-4,4-4s4,1.791,4,4v4h3l-4,4L14,11L14,11z M6.005,7c-0.553,0-1-0.447-1-1c0-0.552,0.447-1,1-1c0.552,0,1,0.448,1,1 C7.005,6.552,6.557,7,6.005,7z" clip-rule="evenodd"/>
</svg>