<svg xmlns="http://www.w3.org/2000/svg" width="24px" height="24px" x="0px" y="0px" fill="#D04100">
  <path fill-rule="evenodd" d="M6,9c1.656,0,3-1.344,3-3S7.656,3,6,3S3,4.344,3,6S4.344,9,6,9L6,9z M18,15 c-1.656,0-3,1.344-3,3s1.344,3,3,3s3-1.344,3-3S19.656,15,18,15L18,15z M13.5,12.5c-0.553,0-1,0.447-1,1s0.447,1,1,1s1-0.447,1-1 S14.053,12.5,13.5,12.5L13.5,12.5z M10.5,9.5c-0.553,0-1,0.447-1,1c0,0.552,0.447,1,1,1s1-0.448,1-1C11.5,9.947,11.053,9.5,10.5,9.5 L10.5,9.5z M6,7.2C5.338,7.2,4.801,6.662,4.801,6c0-0.663,0.537-1.2,1.199-1.2S7.199,5.337,7.199,6C7.199,6.662,6.662,7.2,6,7.2z" clip-rule="evenodd"/>
</svg>