<svg xmlns="http://www.w3.org/2000/svg" width="24" height="24" viewBox="0 0 24 24" fill="#D04100">
  <path fill-rule="evenodd" d="M17.998,2.993h-12c-1.11,0-2,0.9-2,2v9.59l0.938,0.939 c0.551-0.551,1.1-1.1,1.65-1.65l3.535,3.535c-0.551,0.551-1.1,1.1-1.65,1.65l1.942,1.941l9.584-0.005c1.1,0,2-0.899,2-2v-12 L17.998,2.993L17.998,2.993L17.998,2.993z M3.287,15.994c0.55,0.55,1.1,1.099,1.649,1.649l1.65-1.649L8,17.407l-1.649,1.65L8,20.706 L6.585,22.12l-1.649-1.648L3.288,22.12l-1.414-1.414l1.648-1.648l-1.649-1.65L3.287,15.994L3.287,15.994z M15.998,8.993h-10v-4h10 V8.993L15.998,8.993z M12.998,16.994c-1.659,0-3-1.341-3-3.001s1.34-3,3-3c1.661,0,3,1.34,3,3S14.658,16.994,12.998,16.994z" clip-rule="evenodd"/>
</svg>