<svg xmlns="http://www.w3.org/2000/svg" width="24" height="24" viewBox="0 0 24 24" fill="#D04100">
  <path fill-rule="evenodd" d="M2,4.999V19c0,1.101,0.9,2,2,2h16.002c1.1,0,2-0.899,2-2V4.999 c0-1.1-0.9-2-2-2H4C2.9,2.999,2,3.899,2,4.999L2,4.999z M14.002,4.999v2H12v-2H14.002L14.002,4.999z M12,6.999v2V11v2v2v2.001h-2V19 H4V4.999h6v2H12L12,6.999z M12,8.999h2.002V11H12h-2V8.999H12L12,8.999z M12,13h2.002v2H12h-2v-2H12L12,13z M12,17.001h2.002V19H12 V17.001L12,17.001z M17.002,15v1.999h-2V15H17.002L17.002,15z M17.002,10.999v2h-2v-2H17.002L17.002,10.999z M17.002,6.999v2h-2v-2 H17.002L17.002,6.999z M9,15.001v2H7v-2H9L9,15.001z M9,11.001V13H7v-1.999H9L9,11.001z M9,7v2H7V7H9z" clip-rule="evenodd"/>
</svg>