<svg xmlns="http://www.w3.org/2000/svg" width="24" height="24" viewBox="0 0 24 24" fill="#D04100">
  <path fill-rule="evenodd" d="M11.7,13.609c0.17-0.07,0.35-0.109,0.54-0.109H13v-6c0-0.83,0.67-1.5,1.5-1.5 S16,6.669,16,7.5V18.24l3.431-0.721c0.08-0.01,0.149-0.029,0.239-0.029c0.311,0,0.59,0.129,0.79,0.33l0.79,0.799l-4.939,4.941 C16.04,23.83,15.66,24,15.25,24H8.46c-0.75,0-1.33-0.551-1.439-1.281l-0.75-5.27c-0.01-0.07-0.021-0.139-0.021-0.199 c0-0.621,0.38-1.16,0.91-1.381L11.7,13.609L11.7,13.609z M14.501,4.5c1.657,0,3,1.343,3,2.999v3.354c0.923-0.825,1.5-2.02,1.5-3.353 c0-2.489-2.01-4.5-4.5-4.501C12.354,3,10.565,4.494,10.112,6.5L6.989,6.501V3.5l-3.99,4l3.99,4v-3h3.123 c0.21,0.925,0.704,1.74,1.389,2.353V7.5C11.501,5.843,12.844,4.5,14.501,4.5z" clip-rule="evenodd"/>
</svg>