<svg xmlns="http://www.w3.org/2000/svg" width="24" height="24" viewBox="0 0 24 24" fill="#D04100">
  <path fill-rule="evenodd" d="M14.001,11c2.209,0,4,1.791,4,4v2h-2v-2c0-1.105-0.896-2-2-2h-2 C12,15.207,10.21,16.996,8.002,16.996L6.001,17v-2l2-0.004c1.104,0,1.999-0.893,2-1.996V9c-1.104,0.002-1.998,0.896-1.998,2 l-0.002,1h-2l0.002-1c0-2.209,1.79-3.998,3.998-4h4c1.104,0,2-0.896,2-2V4h2v1c0,2.209-1.79,4-4,4V11L14.001,11z M12.001,2 c-1.104,0-2,0.895-2,2c0,1.104,0.896,2,2,2s2-0.896,2-2C14.001,2.895,13.105,2,12.001,2L12.001,2z M2.001,22v-3h20v3H2.001z" clip-rule="evenodd"/>
</svg>