<svg xmlns="http://www.w3.org/2000/svg" width="24" height="24" viewBox="0 0 24 24" fill="#D04100">
  <path fill-rule="evenodd" d="M2,8.998l2.293-2.293l2.121,2.121l1.414-1.414L5.708,5.291L8,2.998H2V8.998 L2,8.998z M21,15.998l-2.293,2.293l-2.121-2.121l-1.414,1.414l2.121,2.121L15,21.998h6V15.998L21,15.998z M16.001,2 c0.926,0,1.803,0.209,2.586,0.584l-4.001,4.002l2.829,2.828l4.001-4.002c0.375,0.783,0.585,1.66,0.585,2.588c0,3.313-2.686,6-6,6 c-0.736,0-1.44-0.133-2.092-0.375l-8.203,8.201c-0.389,0.389-1.025,0.389-1.414,0l-2.121-2.121c-0.389-0.389-0.389-1.025,0-1.414 l8.204-8.203C10.133,9.438,10.001,8.734,10.001,8C10.001,4.686,12.688,2,16.001,2z" clip-rule="evenodd"/>
</svg>