<svg xmlns="http://www.w3.org/2000/svg" width="24" height="24" viewBox="0 0 24 24" fill="#D04100">
  <path fill-rule="evenodd" d="M22.998,11.001h-7.996v2h7.996V11.001L22.998,11.001z M3,3.001 c-1.1,0-2,0.91-2,2.01l0.002,3.99H3V5h18l0.002,4.001h2v-3.99C23.002,3.901,22.1,3,21,3L3,3.001L3,3.001z M21.002,15.002L21,19H3 v-3.998H1.002v4.01C1.002,20.111,1.9,21,3,21h18c1.1,0,2.002-0.889,2.002-1.988v-4.01H21.002L21.002,15.002z M7,16.002L7,16.002v-3 H0.998v-2H7v-3L11,12L7,16.002z" clip-rule="evenodd"/>
</svg>