<svg xmlns="http://www.w3.org/2000/svg" width="24" height="24" viewBox="0 0 24 24" fill="#D04100">
  <path fill-rule="evenodd" d="M12,2c1.657,0,3,1.343,3,3c0,1.307-0.835,2.418-2,2.83v12.1 c2.063-0.295,3.835-1.488,4.908-3.17l-1.333-1.334l4.243-4.242c0.12,0.587,0.184,1.195,0.184,1.816c0,4.972-4.029,9-9,9 c-4.971,0-9-4.028-9-9c0-0.621,0.063-1.229,0.183-1.816l4.243,4.242l-1.333,1.334c1.072,1.682,2.844,2.875,4.905,3.17V7.83 C9.834,7.417,9,6.306,9,5C9,3.342,10.342,2,12,2L12,2z M12.001,3.5c-0.829,0-1.5,0.672-1.5,1.5c0,0.829,0.672,1.501,1.5,1.501 s1.5-0.672,1.5-1.501C13.501,4.171,12.83,3.5,12.001,3.5z" clip-rule="evenodd"/>
</svg>