<svg xmlns="http://www.w3.org/2000/svg" x="0px" y="0px" width="24px" height="24px" fill="#D04100">
  <path d="M18.502,3c1.381,0,2.5,1.119,2.5,2.5S19.883,8,18.502,8s-2.5-1.119-2.5-2.5 S17.121,3,18.502,3L18.502,3z M12,2C6.477,2,2,6.478,2,12c0,5.523,4.477,10,10,10s10-4.477,10-10c0-0.906-0.121-1.783-0.348-2.618 c-0.529,0.431-1.15,0.756-1.828,0.941C19.939,10.864,20,11.425,20,12c0,4.419-3.582,8-8,8s-8-3.581-8-8c0-4.418,3.582-8,8-8 c0.576,0,1.137,0.062,1.678,0.177c0.186-0.678,0.512-1.299,0.941-1.829C13.785,2.122,12.906,2,12,2L12,2z M12,7.5 c-2.486,0-4.5,2.015-4.5,4.5s2.014,4.5,4.5,4.5c2.484,0,4.5-2.015,4.5-4.5S14.484,7.5,12,7.5z" fill-rule="evenodd" clip-rule="evenodd"/>
</svg>