<svg xmlns="http://www.w3.org/2000/svg" width="24" height="24" viewBox="0 0 24 24" fill="#D04100">
  <path fill-rule="evenodd" d="M10,2c4.418,0,8,3.582,8,8c0,1.107-0.227,2.164-0.633,3.123l4.049,4.051 c0.779,0.777,0.779,2.049,0,2.828l-1.414,1.414c-0.777,0.777-2.051,0.777-2.828,0l-4.051-4.051C12.164,17.773,11.109,18,10,18 c-4.418,0-8-3.582-8-8S5.582,2,10,2L10,2z M12,10.586L10.586,12c2.668,2.666,5.334,5.334,8.002,8.002l1.414-1.414 c-0.002,0-0.002,0-0.002,0h0.002c0.002,0-0.002-0.002-0.002,0h0.002C17.336,15.92,14.668,13.252,12,10.586L12,10.586z M15.797,11.553C15.93,11.057,16,10.537,16,10c0-3.314-2.686-6-6-6s-6,2.686-6,6c0,3.313,2.686,6,6,6 c0.537,0,1.059-0.072,1.555-0.203l-5.695-5.695l4.244-4.242L15.797,11.553L15.797,11.553z M20.008,18.588h0.002 C20.014,18.584,20.01,18.586,20.008,18.588z" clip-rule="evenodd"/>
</svg>