<svg xmlns="http://www.w3.org/2000/svg" width="24" height="24" viewBox="0 0 24 24" fill="#D04100">
  <path fill-rule="evenodd" d="M2.998,11.889l0.033-0.131C4.125,7.379,5.221,3,8,3s3.873,4.379,4.969,8.758 C13.873,15.379,14.779,19,16,19s2.125-3.621,3.031-7.242l0.189-0.756H21v1.113l-0.031,0.127C19.873,16.621,18.779,21,16,21 s-3.873-4.379-4.969-8.758C10.127,8.621,9.221,5,8,5s-2.127,3.621-3.031,7.242L4.779,13H2.998V11.889L2.998,11.889z M16.221,11.002 c-0.553,0-1,0.447-1,1c0,0.551,0.447,1,1,1s1-0.449,1-1C17.221,11.449,16.773,11.002,16.221,11.002L16.221,11.002z M7.779,11 c-0.553,0-1,0.449-1,1c0,0.553,0.447,1,1,1c0.551,0,1-0.447,1-1C8.779,11.449,8.33,11,7.779,11z" clip-rule="evenodd"/>
</svg>