<svg fill="#000000" height="24" viewBox="0 0 24 24" width="24" xmlns="http://www.w3.org/2000/svg"><path d="M6.295714285714286 15.668571428571429 L7.0842857142857145 15.257142857142858 L7.050000000000001 13.98857142857143 L7.598571428571429 12.96 L8.455714285714286 12.137142857142857 L9.312857142857144 11.862857142857143 L9.827142857142858 10.731428571428571 L10.547142857142857 9.90857142857143 L11.438571428571429 9.394285714285715 L12.535714285714286 9.154285714285715 L13.564285714285715 9.360000000000001 L14.421428571428573 9.84 L15.072857142857144 10.422857142857143 L15.587142857142858 10.14857142857143 L16.204285714285714 10.14857142857143 L16.10142857142857 9.291428571428572 L15.724285714285715 8.365714285714287 L15.03857142857143 7.611428571428572 L14.07857142857143 6.994285714285715 L12.87857142857143 6.685714285714286 L11.610000000000001 6.925714285714286 L10.65 7.508571428571429 L10.067142857142859 8.194285714285714 L9.827142857142858 8.708571428571428 L9.072857142857144 8.262857142857143 L8.112857142857143 8.16 L7.187142857142858 8.502857142857144 L6.501428571428572 9.051428571428572 L5.952857142857143 9.977142857142857 L5.815714285714286 10.834285714285715 L6.090000000000001 11.485714285714286 L5.438571428571429 11.520000000000001 L4.752857142857143 11.862857142857143 L4.101428571428571 12.48 L3.792857142857143 13.302857142857144 L3.8614285714285717 14.262857142857143 L4.41 14.982857142857144 L5.267142857142858 15.634285714285715"/><path d="M9.175714285714287 16.697142857142858 L8.421428571428573 16.32 L7.804285714285714 15.668571428571429 L7.427142857142858 14.537142857142857 L7.6328571428571435 13.611428571428572 L8.112857142857143 12.891428571428571 L8.867142857142857 12.411428571428573 L9.621428571428572 12.377142857142857 L9.758571428571429 11.622857142857143 L10.204285714285716 10.971428571428572 L10.752857142857144 10.32 L11.541428571428572 9.874285714285715 L12.33 9.702857142857143 L13.255714285714287 9.874285714285715 L13.975714285714286 10.217142857142857 L14.387142857142857 10.62857142857143 L14.764285714285714 11.142857142857144 L15.347142857142858 10.731428571428571 L16.06714285714286 10.56 L16.958571428571428 10.697142857142858 L17.541428571428572 11.177142857142858 L17.952857142857145 11.657142857142858 L18.192857142857143 12.377142857142857 L18.22714285714286 12.994285714285715 L18.810000000000002 13.200000000000001 L19.290000000000003 13.714285714285715 L19.53 14.365714285714287 L19.564285714285717 14.88 L19.427142857142858 15.428571428571429 L19.11857142857143 16.01142857142857 L18.604285714285716 16.560000000000002 L18.124285714285715 16.765714285714285"/></svg>
