<svg xmlns="http://www.w3.org/2000/svg" width="24" height="24" viewBox="0 0 24 24" fill="#590094">
  <path fill-rule="evenodd" d="M14.105,8c1.158,0,2.146,0.512,2.732,1.347C17.742,8.524,18.92,8,20.105,8 c0.26,0,0.51,0.025,0.748,0.074l-0.52,1.939C20.262,10.005,20.186,10,20.105,10c-1.377,0-2.91,1.382-2.91,2.778 c0,0.792,0.523,1.222,1.303,1.222c0.268,0,0.541-0.052,0.807-0.146l-0.572,2.14C18.654,15.998,18.576,16,18.498,16 c-1.158,0-2.146-0.512-2.73-1.347C14.861,15.476,13.684,16,12.498,16c-0.258,0-0.508-0.025-0.748-0.074l0.52-1.938 C12.344,13.995,12.42,14,12.498,14c1.379,0,2.91-1.382,2.91-2.778c0-0.792-0.523-1.222-1.303-1.222 c-0.268,0-0.539,0.052-0.807,0.146l0.574-2.14C13.949,8.002,14.027,8,14.105,8L14.105,8z M3.82,20c1.852,0,3.408-1.258,3.865-2.965 L9.303,11H12V9H9.84l0.406-1.518C10.475,6.629,11.254,6,12.178,6c0.18,0,0.354,0.023,0.518,0.068l0.52-1.932 C12.885,4.048,12.537,4,12.178,4c-1.85,0-3.406,1.258-3.863,2.966L7.77,9H5v2h2.232l-1.48,5.518C5.523,17.371,4.746,18,3.82,18 c-0.18,0-0.352-0.023-0.518-0.067l-0.52,1.932C3.113,19.952,3.461,20,3.82,20z" clip-rule="evenodd"/>
</svg>