<svg xmlns="http://www.w3.org/2000/svg" width="24" height="24" viewBox="0 0 24 24">
  <path fill-rule="evenodd" d="M11.053,7.091v-3.09h1.895v3.09c2.002,0.383,3.58,1.961,3.963,3.961H20v1.895 h-3.09c-0.383,2.002-1.961,3.58-3.963,3.963v3.09h-1.895v-3.09c-2.002-0.383-3.578-1.961-3.963-3.963H4v-1.895h3.09 C7.475,9.052,9.053,7.474,11.053,7.091L11.053,7.091z M12,11.001c-0.553,0-1,0.447-1,1c0,0.551,0.447,1,1,1s1-0.449,1-1 C13,11.448,12.553,11.001,12,11.001L12,11.001z M12,8.501c-1.932,0-3.5,1.566-3.5,3.5c0,1.932,1.568,3.5,3.5,3.5 c1.934,0,3.5-1.568,3.5-3.5C15.5,10.067,13.934,8.501,12,8.501z" clip-rule="evenodd"/>
</svg>
