<?xml version="1.0" encoding="utf-8"?>
<!-- Generator: Adobe Illustrator 16.0.0, SVG Export Plug-In . SVG Version: 6.00 Build 0)  -->
<!DOCTYPE svg PUBLIC "-//W3C//DTD SVG 1.1//EN" "http://www.w3.org/Graphics/SVG/1.1/DTD/svg11.dtd">
<svg version="1.1" xmlns="http://www.w3.org/2000/svg" xmlns:xlink="http://www.w3.org/1999/xlink" x="0px" y="0px"
	 width="24px" height="24px" viewBox="399 279 890 890"
	 enable-background="new 0 0 1700.79004 1700.79004" xml:space="preserve">
<g id="bg">
	<g>
		<path d="M1146.63477,642.46973l-120.05859,69.31543c-12.54883,7.24512-12.54883,25.48535,0,32.73145
			l120.05859,69.31543c12.56836,7.25684,28.3457-1.85254,28.3457-16.36621V658.83496
			C1174.98047,644.32227,1159.20313,635.21387,1146.63477,642.46973z M1137.18555,764.73535l-63.36523-36.58398l63.36523-36.58398
			V764.73535z"/>
		<path fill-rule="evenodd" clip-rule="evenodd" d="M1140.26172,887.32422l-160.56836-92.70605
			c-7.51367-4.33789-17.13672-2.14453-22.00391,5.13281c-24.02539,35.92578-64.13672,57.37598-107.29395,57.37598
			c-71.11719,0-128.97656-57.8584-128.97656-128.97559c0-71.11816,57.85938-128.97656,128.97656-128.97656
			c43.15723,0,83.26855,21.44922,107.29395,57.37695c4.86328,7.26953,14.5,9.46484,22.00195,5.13184l160.57031-92.70605
			c8.08594-4.66602,10.70313-15.07617,5.79883-23.0127c-61.64063-99.83008-171.71484-165.05762-295.66504-165.05762
			c-195.38086,0-347.24414,159.10059-347.24414,347.24414c0,190.21777,153.74414,347.24316,347.24414,347.24316
			c123.9541,0,234.02441-65.23047,295.66504-165.05664C1150.96094,902.4043,1148.33984,891.98828,1140.26172,887.32422z
			 M850.39551,871.30078c47.89941,0,92.41309-23.80371,119.07324-63.66992c0.67383-1.00684,2.07031-1.35645,3.13672-0.73926
			l86.52148,49.9541c-43.19336,69.91211-120.51758,116.50195-208.73145,116.50195
			c-87.22656,0-163.81055-45.55078-207.27539-114.16016c-2.88477-4.55469-1.36719-10.57715,3.25391-13.24512l80.07813-46.23242
			C751.2373,842.47266,797.5127,871.30078,850.39551,871.30078z M850.39551,395.08008
			c116.36816,0,222.38965,59.18945,283.6084,158.33203c0.69141,1.12207,0.33594,2.61914-0.82617,3.29004l-86.33008,49.84277
			c-40.73828-65.67578-113.48438-109.41699-196.45215-109.41699c-82.25977,0-154.4707,42.99512-195.40234,107.73535
			c-2.70898,4.2832-8.31641,5.6709-12.70508,3.13672l-80.27344-46.34668
			C619.68262,462.1543,727.35059,395.08008,850.39551,395.08008z"/>
	</g>
</g>
</svg>
