<svg xmlns="http://www.w3.org/2000/svg" width="24px" height="24px" x="0px" y="0px" fill="#00768E">
  <path fill-rule="evenodd" d="M18,16.079c-0.76,0-1.439,0.301-1.961,0.771l-7.129-4.15 C8.959,12.47,9,12.239,9,12c0-0.24-0.041-0.471-0.09-0.7l7.049-4.11C16.5,7.689,17.209,8,18,8c1.66,0,3-1.34,3-3.001 c0-1.66-1.34-3-3-3s-3,1.34-3,3c0,0.24,0.039,0.471,0.09,0.7L8.039,9.81C7.5,9.31,6.789,8.999,6,8.999c-1.66,0-3,1.34-3,3.001 c0,1.66,1.34,3,3,3c0.789,0,1.5-0.31,2.041-0.81l7.119,4.159c-0.051,0.211-0.08,0.431-0.08,0.65c0,1.61,1.311,2.92,2.92,2.92 s2.92-1.31,2.92-2.92S19.609,16.08,18,16.079L18,16.079z" clip-rule="evenodd"/>
</svg>