<svg xmlns="http://www.w3.org/2000/svg" width="24px" height="24px" x="0px" y="0px" fill="#00768E">
  <path fill-rule="evenodd" d="M3,3c6,0,12,0,18,0c1.1,0,2,0.9,2,2c0,4.667,0,9.334,0,14c0,1.1-0.9,2-2,2 c-6,0-12,0-18,0c-1.1,0-2-0.9-2-2c0-4.666,0-9.333,0-14C1,3.9,1.898,3,3,3L3,3z M9.199,13.799L7.398,12l1.801-1.8l-1.4-1.399L4.6,12 l3.199,3.199L9.199,13.799L9.199,13.799z M13.969,8.242l-1.938-0.484l-2,8l1.938,0.484L13.969,8.242L13.969,8.242z M14.799,13.799 l1.4,1.4L19.4,12l-3.199-3.199l-1.4,1.399L16.6,12L14.799,13.799L14.799,13.799z M21,19c0-4.666,0-9.333,0-14C15,5,9,5,3,5 c0,4.667,0,9.334,0,14C9,19,15,19,21,19z" clip-rule="evenodd"/>
</svg>