<svg xmlns="http://www.w3.org/2000/svg" width="24" height="24" viewBox="0 0 24 24" fill="#00768E">
  <path fill-rule="evenodd" d="M14.301,13.607c-0.17-0.07-0.352-0.11-0.541-0.11l-0.76,0v-6 c0-0.83-0.67-1.5-1.5-1.5s-1.5,0.67-1.5,1.5v10.74l-3.43-0.72c-0.08-0.01-0.15-0.03-0.24-0.03c-0.311,0-0.59,0.13-0.791,0.33 l-0.789,0.8l4.939,4.94c0.27,0.27,0.65,0.44,1.061,0.44h6.789c0.75,0,1.33-0.55,1.441-1.28l0.75-5.27 c0.094-0.666-0.264-1.32-0.891-1.58L14.301,13.607L14.301,13.607z M14.5,10.849V7.497c0-1.656-1.344-3-3-3s-3,1.344-3,3v3.353 C7.576,10.024,7,8.831,7,7.497c0-2.49,2.01-4.5,4.5-4.5s4.5,2.01,4.5,4.5C16,8.83,15.424,10.025,14.5,10.849z" clip-rule="evenodd"/>
</svg>