<svg xmlns="http://www.w3.org/2000/svg" width="24" height="24" viewBox="0 0 24 24" fill="#00768E">
  <path fill-rule="evenodd" d="M13,2.186l7,4.041c0.637,0.367,1,0.998,1,1.732v8.082 c0,0.734-0.363,1.365-1,1.732l-7,4.041c-0.635,0.369-1.363,0.369-2,0l-7-4.041c-0.635-0.367-1-0.998-1-1.732V7.959 c0-0.734,0.365-1.365,1-1.732l7-4.041C11.637,1.818,12.365,1.818,13,2.186L13,2.186z M13,13.732L19.795,7.5L11,10.268L4.207,16.5 L13,13.732L13,13.732z M12,11c-0.553,0-1,0.447-1,1s0.447,1,1,1s1-0.447,1-1S12.553,11,12,11z" clip-rule="evenodd"/>
</svg>