<svg xmlns="http://www.w3.org/2000/svg" width="24" height="24" viewBox="0 0 24 24" fill="#00768E">
  <path fill-rule="evenodd" d="M18,4c3.314,0,6,2.687,6,6c0,2.797-1.912,5.146-4.5,5.812V18H21 c1.1,0,2,0.899,2,2l0,0h-5v-6.5l0,0c1.381,0,2.5-1.119,2.5-2.5S19.381,8.5,18,8.5l0,0V4L18,4z M18,20h-5l0,0c0-1.101,0.9-2,2-2h1.5 v-2.189C13.912,15.144,12,12.795,12,10c0-3.313,2.688-6,6-6v4.5c-1.381,0-2.5,1.119-2.5,2.5s1.119,2.5,2.5,2.5V20L18,20z M6,21.001 h1V17.91c2.83-0.479,5-2.94,5-5.91h-2c0,2.21-1.789,4-4,4V21.001L6,21.001z M6,14V5c1.102,0,2,0.899,2,2v5C8,13.1,7.102,14,6,14z M6,5v9c-1.1,0-2-0.899-2-2V7C4,5.9,4.9,5,6,5L6,5z M6,16c-2.209,0-3.999-1.79-3.999-4H0c0,2.97,2.17,5.431,5,5.91v3.091h1V16z" clip-rule="evenodd"/>
</svg>