<svg xmlns="http://www.w3.org/2000/svg" width="24" height="24" viewBox="0 0 24 24" fill="#00768E">
  <path fill-rule="evenodd" d="M4.002,1.996c-1.1,0-2,0.9-2,2v16c0,1.1,0.898,2,2,2h16c1.1,0,2-0.9,2-2v-16 c0-1.1-0.9-2-2-2H4.002L4.002,1.996z M8.002,19.996h-4v-4h4V19.996L8.002,19.996z M8.002,13.996h-4v-4h4V13.996L8.002,13.996z M8.002,7.996h-4v-4h4V7.996L8.002,7.996z M14.002,19.996h-4v-4h4V19.996L14.002,19.996z M14.002,13.996h-4v-4h4V13.996 L14.002,13.996z M14.002,7.996h-4v-4h4V7.996L14.002,7.996z M20.002,19.996h-4v-4h4V19.996L20.002,19.996z M20.002,13.996h-4v-4h4 V13.996L20.002,13.996z M20.002,7.996h-4v-4h4V7.996z" clip-rule="evenodd"/>
</svg>