<svg xmlns="http://www.w3.org/2000/svg" width="24px" height="24px" x="0px" y="0px" viewBox="0 0 24 24" fill="#00768E">
  <path fill-rule="evenodd" d="M11,6.999h2V5h8.001v1.999h2v-4c-7.334,0-14.667,0-22.001,0v4h2V5h8V6.999 L11,6.999z M10,16.5c1.025,0,1.906,0.617,2.292,1.5h3.88c0.411-1.165,1.522-2,2.829-2c1.657,0,3,1.343,3,3s-1.343,3-3,3 c-1.307,0-2.418-0.835-2.829-2h-3.88c-0.386,0.883-1.267,1.5-2.292,1.5c-1.381,0-2.5-1.119-2.5-2.5S8.619,16.5,10,16.5L10,16.5z M19.001,18c-0.553,0-1,0.447-1,1s0.447,1,1,1c0.552,0,1-0.447,1-1S19.553,18,19.001,18L19.001,18z M14,10.499 c-1.024,0-1.905,0.617-2.291,1.5h-3.88c-0.412-1.165-1.523-2-2.829-2c-1.657,0-3,1.343-3,3s1.343,3,3,3c1.307,0,2.417-0.835,2.829-2 h3.879c0.386,0.884,1.267,1.5,2.292,1.5c1.382,0,2.501-1.119,2.501-2.5S15.382,10.499,14,10.499L14,10.499z M5,11.999 c0.553,0,1,0.447,1,1s-0.447,1-1,1s-1-0.447-1-1S4.447,11.999,5,11.999z" clip-rule="evenodd"/>
</svg>