<svg xmlns="http://www.w3.org/2000/svg" width="24" height="24" viewBox="0 0 24 24" fill="#00768E">
  <path fill-rule="evenodd" d="M11,2h2c2.031,0,3.721,1.534,3.969,3.5h-3.031C13.713,4.64,12.928,4,12,4 c-1.1,0-2,0.9-2,2v7.505l1.301-1.3l0.994,0.996L8.5,17l-3.795-3.799l0.996-0.996L7,13.506V6C7,3.8,8.801,2,11,2L11,2z M15.5,7 l-3.795,3.799l0.996,0.996l1.299-1.3V18c0,1.1-0.898,2-2,2c-0.928,0-1.713-0.64-1.936-1.5H7.031C7.279,20.466,8.969,22,11,22h2 c2.201,0,4-1.8,4-4v-7.506l1.301,1.3l0.996-0.996L15.5,7z" clip-rule="evenodd"/>
</svg>