<svg xmlns="http://www.w3.org/2000/svg" width="24" height="24" viewBox="0 0 24 24" fill="#00768E">
  <path fill-rule="evenodd" d="M3.002,12.997c0,1.657,1.343,3,3,3s3-1.343,3-3c0-1.657-1.343-3-3-3 S3.002,11.34,3.002,12.997L3.002,12.997z M18.002,19.997c0.55,0,1-0.45,1-1c0-0.55-0.45-1-1-1s-1,0.45-1,1 C17.002,19.547,17.452,19.997,18.002,19.997L18.002,19.997z M7.001,19.997c0.55,0,1-0.45,1-1c0-0.55-0.45-1-1-1s-1,0.45-1,1 C6.001,19.547,6.451,19.997,7.001,19.997L7.001,19.997z M5.502,4.997c-0.825,0-1.5,0.675-1.5,1.5s0.675,1.5,1.5,1.5 c0.824,0,1.5-0.675,1.5-1.5S6.326,4.997,5.502,4.997L5.502,4.997z M18.001,15.997c1.106,0,2-0.893,2-2c0-1.106-0.894-2-2-2 s-2,0.893-2,2C16.001,15.104,16.895,15.997,18.001,15.997L18.001,15.997z M17.999,7.497c0,2.485-2.015,4.5-4.5,4.5 C11.015,11.997,9,9.982,9,7.497c0-2.485,2.015-4.5,4.499-4.5C15.984,2.997,17.999,5.012,17.999,7.497L17.999,7.497z M9.9,17.398 c0,1.381,1.119,2.5,2.5,2.5s2.501-1.119,2.501-2.5c0-1.38-1.12-2.5-2.501-2.5S9.9,16.018,9.9,17.398z" clip-rule="evenodd"/>
</svg>