<svg xmlns="http://www.w3.org/2000/svg" width="24px" height="24px" x="0px" y="0px" fill="#00768E">
  <path fill-rule="evenodd" d="M14,2.999V1h-4v1.999H4c-1.1,0-2,0.9-2,2C2,9.666,2,13.332,2,18c0,1.1,0.9,2,2,2 h1.6L5,22.998h4L9.6,20H14.4l0.6,2.998h4L18.4,20H20c1.1,0,2-0.9,2-2c0-4.668,0-8.334,0-13.001c0-1.1-0.9-2-2-2H14L14,2.999z M6.594,10.577l1.563-2.5c0.746-1.195,2.318-1.568,3.521-0.832c1.211,0.732,1.59,2.332,0.85,3.536l-0.844,1.352 c-0.166,0.266-0.092,0.618,0.174,0.787c0.268,0.174,0.629,0.094,0.799-0.176c0.75-1.202,2.338-1.572,3.541-0.82 c1.203,0.751,1.572,2.338,0.82,3.542L16.6,16.131l-1.695-1.053l0.418-0.668c0.168-0.268,0.09-0.623-0.18-0.791 s-0.623-0.092-0.793,0.18c-0.746,1.195-2.318,1.568-3.521,0.832c-1.209-0.742-1.592-2.322-0.852-3.533l0.846-1.355 c0.166-0.268,0.092-0.618-0.176-0.789S10.02,8.861,9.852,9.13l-1.564,2.501L6.594,10.577L6.594,10.577z M4,18 c0-4.668,0-8.334,0-13.001c6,0,10,0,16,0c0,4.667,0,8.333,0,13.001C14,18,10,18,4,18z" clip-rule="evenodd"/>
</svg>