<svg xmlns="http://www.w3.org/2000/svg" width="24" height="24" viewBox="0 0 24 24" fill="#00768E">
  <path fill-rule="evenodd" d="M8.797,19.999c7.429,0,11.492-6.154,11.492-11.492 c0-0.174-0.004-0.348-0.012-0.521c1.032-0.307,1.96-1.1,2.222-1.99c-0.727,0.469-2.057,0.643-2.75,0.5 c0.959-0.33,2.173-1.484,2.25-2.494c-0.986,0.629-1.93,0.996-2.962,1.135l-0.146-0.143c-0.71-0.617-1.64-0.992-2.655-0.992 c-2.231,0-4.04,1.809-4.04,4.037c0,0.318,0.035,0.627,0.104,0.922C8.945,8.792,5.802,7.077,3.5,4.501 c-0.776,2.033,0.254,4.705,2.25,5.744c-0.695,0.121-1.915-0.145-2.603-0.619c0.103,2.07,2.113,3.873,4.167,4.227 c-0.529,0.303-2.142,0.385-3.074,0.07c0.625,1.537,2.63,2.551,4.509,2.572c-1.526,1.355-4.018,1.965-6.5,1.75 C4.037,19.392,6.516,19.999,8.797,19.999z" clip-rule="evenodd"/>
</svg>