<svg xmlns="http://www.w3.org/2000/svg" width="24" height="24" viewBox="0 0 24 24" fill="#00768E">
  <path fill-rule="evenodd" d="M5,4.07v15.852c0,0.15,0.031,0.295,0.09,0.422l8.349-8.348L5.09,3.646 C5.031,3.775,5,3.918,5,4.07L5,4.07z M7.121,20.436l7.379-7.381l2.037,2.039L7.121,20.436L7.121,20.436z M17.891,14.326l2.576-1.461 c0.322-0.184,0.506-0.5,0.506-0.869c0-0.371-0.184-0.688-0.506-0.871l-2.576-1.461l-2.33,2.332L17.891,14.326L17.891,14.326z M16.537,8.896L14.5,10.936L7.121,3.557L16.537,8.896z" clip-rule="evenodd"/>
</svg>