<svg xmlns="http://www.w3.org/2000/svg" width="24" height="24" viewBox="0 0 24 24" fill="#00768E">
  <path fill-rule="evenodd" d="M3,8.994l4.016-0.803V4c0-0.945,0.539-1.811,1.383-2.234l1-0.5 C9.746,1.092,10.126,1,10.515,1c0.689,0,1.314,0.281,1.768,0.732c0.352,0.352,0.6,0.809,0.691,1.318 c0.172-0.037,0.35-0.057,0.528-0.057c0.688,0,1.313,0.281,1.766,0.732s0.734,1.078,0.734,1.768v0.9L18,5.994l3,1.5v14l-3,1.5l-15-3 V8.994L3,8.994z M14,10.494l-4,0.5v3h4V10.494L14,10.494z M14,14.994h-4v3l4,0.5V14.994L14,14.994z M9,17.869v-2.875H6v2.5L9,17.869 L9,17.869z M6,13.994h3v-2.875l-3,0.375V13.994L6,13.994z M8.015,7.99l1.986-0.396v-1.6c0-0.945,0.537-1.813,1.383-2.234 l0.631-0.316C12,3.053,11.835,2.699,11.576,2.439C11.306,2.168,10.931,2,10.515,2c-0.232,0-0.463,0.053-0.672,0.156l-1,0.5 C8.333,2.912,8.015,3.43,8.015,4V7.99L8.015,7.99z M11.001,7.395l1.014-0.203V4.557L11.83,4.65 c-0.512,0.256-0.828,0.773-0.828,1.344V7.395L11.001,7.395z M13.016,6.99l1.986-0.396v-1.1c0-0.414-0.168-0.789-0.439-1.063 c-0.271-0.27-0.646-0.438-1.061-0.438c-0.166,0-0.33,0.025-0.486,0.078V6.99z" clip-rule="evenodd"/>
</svg>