<svg xmlns="http://www.w3.org/2000/svg" width="24" height="24" viewBox="0 0 24 24" fill="#00768E">
  <path fill-rule="evenodd" d="M1.999,19.998h20c1.102,0,2-0.899,2-2V5.999c0-1.101-0.9-2.001-2-2.001h-20 c-1.098,0-2,0.899-2,2.001v11.999C-0.001,19.1,0.899,19.998,1.999,19.998L1.999,19.998z M9.003,11h1.994v2H9.003V11L9.003,11z M6.999,13h-4v-2h4V13L6.999,13z M6.999,15h9.998v1.998H6.999V15L6.999,15z M4.997,16.998H2.999V15h1.998V16.998L4.997,16.998z M18.999,15h2v1.998h-2V15L18.999,15z M16.999,11h4v2h-4V11L16.999,11z M14.997,13h-1.998v-2h1.998V13L14.997,13z M18.999,6.998h2V9 h-2V6.998L18.999,6.998z M16.997,9h-1.998V6.998h1.998V9L16.997,9z M12.997,9h-1.994V6.998h1.994V9L12.997,9z M6.999,6.998h2V9h-2 V6.998L6.999,6.998z M4.997,9H2.999V6.998h1.998V9z" clip-rule="evenodd"/>
</svg>