<svg xmlns="http://www.w3.org/2000/svg" width="24" height="24" viewBox="0 0 24 24" fill="#00768E">
  <path fill-rule="evenodd" d="M12,1.997c-5.52,0-10,4.479-10,9.999c0,5.521,4.48,10,10,10 c5.521,0,10-4.479,10-10C22,6.477,17.521,1.997,12,1.997L12,1.997z M11,19.928c-3.95-0.49-7-3.852-7-7.932 c0-0.619,0.08-1.209,0.21-1.789L9,14.998v1c0,1.1,0.9,2,2,2V19.928L11,19.928L11,19.928z M17.9,17.387 c-0.261-0.811-1-1.391-1.9-1.391h-1v-3c0-0.549-0.45-1-1-1H8v-2h2c0.55,0,1-0.449,1-1v-2h2c1.101,0,2-0.898,2-2V4.587 c2.931,1.19,5,4.06,5,7.409C20,14.076,19.2,15.967,17.9,17.387z" clip-rule="evenodd"/>
</svg>