<svg xmlns="http://www.w3.org/2000/svg" width="24" height="24" viewBox="0 0 24 24" fill="#00768E">
  <path fill-rule="evenodd" d="M12.999,7.826l0,2.729c1.949,0.229,3.696,1.115,5.013,2.432 c1.086,1.086,1.88,2.465,2.252,4.008h1.738v5h-5v-5h1.186c-0.32-0.99-0.871-1.875-1.589-2.594c-0.954-0.953-2.204-1.613-3.6-1.828 l0,4.422h1.504v5h-5v-5h1.504l0-4.422c-1.396,0.215-2.646,0.874-3.601,1.828c-0.718,0.719-1.269,1.604-1.589,2.594h1.186v5h-5v-5 h1.737c0.373-1.543,1.167-2.922,2.252-4.008c1.318-1.317,3.066-2.205,5.015-2.432l0-2.727C9.838,7.417,9.001,6.305,9.001,4.996 c0-1.656,1.343-3,3-3c1.657,0,3,1.344,3,3C15.001,6.304,14.165,7.416,12.999,7.826z" clip-rule="evenodd"/>
</svg>