<svg xmlns="http://www.w3.org/2000/svg" width="24" height="24" viewBox="0 0 24 24" fill="#00768E">
  <g fill-rule="evenodd" clip-rule="evenodd">
    <path d="M3.125 4h6.75C10.494 4 11 4.506 11 5.125v13.75C11 19.494 10.494 20 9.875 20h-6.75C2.506 20 2 19.494 2 18.875V5.125C2 4.506 2.506 4 3.125 4L3.125 4zM9 7.998H5.999c-1.1 0-1.999.9-1.999 2v.5c0 1.1.899 2 1.999 2H7.5v2H4v1.5h3c1.101 0 2-.9 2-2v-1c0-1.1-.9-2-2-2H5.499l.001-1.5H9V7.998zM14.125 4h6.75C21.494 4 22 4.506 22 5.125v13.75C22 19.494 21.494 20 20.875 20h-6.75C13.506 20 13 19.494 13 18.875V5.125C13 4.506 13.506 4 14.125 4L14.125 4zM20 7.998h-3c-1.099 0-2 .9-2 2v6h1.5v-3H19v-1.5h-2.5v-2H20V7.998z"/>
  </g>
</svg>