<svg xmlns="http://www.w3.org/2000/svg" width="24" height="24" viewBox="0 0 24 24" fill="#00768E">
  <path fill-rule="evenodd" d="M3.01,20.001c-1.1,0-2.18-0.915-2-2l0.002-8c0-3.3,2.699-5.999,5.998-5.999 h10.002c3.299,0,5.998,2.699,5.998,5.999v8c-0.139,1.091-0.898,2-2,2c-2.199,0-3.998-1.799-4-3.999h-10 C7.01,18.202,5.211,20.001,3.01,20.001L3.01,20.001z M6.01,7.002v2h-2v2h2v2h2.002v-2h1.998v-2H8.012v-2H6.01L6.01,7.002z M15.01,8.875c-0.621,0-1.125,0.504-1.125,1.125s0.504,1.125,1.125,1.125s1.125-0.504,1.125-1.125S15.631,8.875,15.01,8.875 L15.01,8.875z M19.01,7.876c-0.621,0-1.125,0.503-1.125,1.125s0.504,1.125,1.125,1.125S20.135,9.622,20.135,9 S19.631,7.876,19.01,7.876z" clip-rule="evenodd"/>
</svg>