<svg xmlns="http://www.w3.org/2000/svg" width="24" height="24" viewBox="0 0 24 24" fill="#00768E">
  <path fill-rule="evenodd" d="M5,3h4.001c1.1,0,2,0.9,2,2v3.997c0,1.1-0.899,2-2,2H5c-1.1,0-2-0.9-2-2V5 C3,3.9,3.9,3,5,3L5,3z M5,15h4v4H5V15L5,15z M19.001,4.997h-4v4h4V4.997L19.001,4.997z M19,13.003h-4c-1.1,0-2,0.9-2,2V19 c0,1.1,0.9,2,2,2h4c1.101,0,2-0.9,2-2v-3.997C21,13.903,20.101,13.003,19,13.003L19,13.003z M9.001,13.003H5c-1.1,0-2,0.9-2,2V19 c0,1.1,0.9,2,2,2h4.001c1.1,0,2-0.9,2-2v-3.997C11,13.903,10.101,13.003,9.001,13.003L9.001,13.003z M15,3h4c1.101,0,2,0.9,2,2 v3.997c0,1.1-0.899,2-2,2h-4c-1.1,0-2-0.9-2-2V5C13,3.9,13.899,3,15,3z" clip-rule="evenodd"/>
</svg>