<svg viewBox="0 0 24 24" fill="#00768E" xmlns="http://www.w3.org/2000/svg">
  <path fill-rule="evenodd" d="M 21.408 9.41 L 17.17 13.661 L 18.18 10.001 L 14 10.001 C 12.895 10.001 12 9.105 12 8.001 L 12 4 C 12 2.896 12.895 2 14 2 L 20 2.001 C 21.104 2 22 2.897 22 4 L 22 8 C 22 8.55 21.779 9.05 21.408 9.41 Z" clip-rule="evenodd"/>
  <path fill-rule="evenodd" d="M 12.888 12.074 L 11.507 12.074 L 11.507 13.455 L 7.363 13.455 L 7.363 12.074 L 5.981 12.074 L 5.981 10.692 L 4.6 10.692 L 4.6 12.074 L 5.981 12.074 L 5.981 13.455 L 4.599 13.455 L 4.599 14.837 L 3.218 14.837 L 3.218 16.218 L 1.837 16.218 L 1.837 20.363 L 3.218 20.363 L 3.218 17.6 L 4.599 17.6 L 4.599 18.981 L 4.599 20.363 L 8.744 20.363 L 8.744 21.744 L 5.981 21.744 L 5.981 20.363 L 5.981 18.981 L 12.888 18.981 L 12.888 21.744 L 10.126 21.744 L 10.126 20.363 L 12.888 20.363 L 14.27 20.363 L 14.27 17.6 L 15.652 17.6 L 15.652 20.363 L 17.033 20.363 L 17.033 16.218 L 15.652 16.218 L 15.652 14.837 L 14.27 14.837 L 14.27 13.455 L 12.888 13.455 L 12.888 12.074 L 14.27 12.074 L 14.27 10.692 L 12.888 10.692 L 12.888 12.074 Z M 12.888 14.837 L 12.888 16.218 L 11.507 16.218 L 11.507 14.837 L 12.888 14.837 Z M 5.981 14.837 L 7.363 14.837 L 7.363 16.218 L 5.981 16.218 L 5.981 14.837 Z" clip-rule="evenodd" style=""/>
</svg>