<svg xmlns="http://www.w3.org/2000/svg" width="24" height="24" viewBox="0 0 24 24" fill="#00768E">
  <path fill-rule="evenodd" d="M19.431,12.98c0.039-0.32,0.068-0.64,0.068-0.98s-0.029-0.66-0.068-0.98 l2.109-1.65c0.189-0.15,0.24-0.419,0.121-0.64l-2.002-3.46c-0.119-0.22-0.389-0.3-0.609-0.22l-2.49,1 c-0.52-0.4-1.08-0.729-1.689-0.98l-0.379-2.65C14.46,2.18,14.249,2,13.999,2h-4C9.749,2,9.54,2.18,9.511,2.42L9.13,5.07 C8.521,5.32,7.96,5.66,7.44,6.05l-2.49-1c-0.23-0.09-0.49,0-0.609,0.22l-2,3.46C2.21,8.95,2.271,9.22,2.46,9.37l2.111,1.65 c-0.041,0.32-0.07,0.65-0.07,0.98s0.029,0.66,0.07,0.98L2.46,14.63c-0.189,0.15-0.24,0.42-0.119,0.64l2,3.46 c0.119,0.22,0.389,0.3,0.609,0.22l2.49-1c0.52,0.4,1.08,0.729,1.689,0.98l0.381,2.65C9.54,21.82,9.749,22,9.999,22h4 c0.25,0,0.461-0.18,0.49-0.42l0.381-2.65c0.609-0.25,1.17-0.59,1.689-0.98l2.49,1c0.23,0.09,0.488,0,0.609-0.22l2-3.46 c0.121-0.22,0.07-0.49-0.119-0.64L19.431,12.98L19.431,12.98z M11.999,15.5c-1.93,0-3.5-1.57-3.5-3.5s1.57-3.5,3.5-3.5 s3.5,1.57,3.5,3.5S13.929,15.5,11.999,15.5z" clip-rule="evenodd"/>
</svg>