<svg xmlns="http://www.w3.org/2000/svg" x="0px" y="0px" width="24px" height="24px" fill="#00768E">
  <path d="M8.25,4.999h-3c-0.6,0-1,0.5-1,1v4c0,0.5,0.4,1.001,1,1.001h3 c0.6,0,1-0.5,1-1c0-1.334,0-2.667,0-4.001C9.25,5.499,8.85,4.999,8.25,4.999L8.25,4.999z M19.75,13h-1.5v6h1.5V13L19.75,13z M11.25,4.999h1.5V11h-1.5V4.999L11.25,4.999z M15.25,13h-3c-0.6,0-1,0.5-1,1v4c0,0.5,0.4,1,1,1h3c0.6,0,1-0.5,1-1 c0-1.333,0-2.667,0-4C16.25,13.5,15.85,13,15.25,13L15.25,13z M14.75,17.5h-2v-3h2V17.5L14.75,17.5z M15.75,4.999h3c0.6,0,1,0.5,1,1 v4c0,0.5-0.4,1.001-1,1.001h-3c-0.6,0-1-0.5-1-1c0-1.334,0-2.667,0-4.001C14.75,5.499,15.15,4.999,15.75,4.999L15.75,4.999z M16.25,9.5h2v-3h-2V9.5L16.25,9.5z M8.25,13h-3c-0.6,0-1,0.5-1,1v4c0,0.5,0.4,1,1,1h3c0.6,0,1-0.5,1-1c0-1.333,0-2.667,0-4 C9.25,13.5,8.85,13,8.25,13L8.25,13z M7.75,17.5h-2v-3h2V17.5L7.75,17.5z M7.75,9.5h-2v-3h2V9.5z" fill-rule="evenodd" clip-rule="evenodd"/>
</svg>