<svg xmlns="http://www.w3.org/2000/svg" x="0px" y="0px" width="24px" height="24px" fill="#00768E">
  <path fill-rule="evenodd" clip-rule="evenodd" d="M10.932,8.198l-5.393,5.71l4.908-2.693l2.564,2.693l5.361-5.71l-4.854,2.646 L10.932,8.198L10.932,8.198z M12,4.499c0.939,0,1.85-0.122,2.721-0.352l2.02-0.53C17.031,3.54,17.334,3.5,17.646,3.5 c1.617,0,2.996,1.083,3.529,2.604c1.09,2.944,1.688,6.15,1.688,9.504c0,0.496-0.014,0.989-0.041,1.48 c-0.045,1.895-1.502,3.412-3.293,3.412c-0.701,0-1.352-0.233-1.887-0.631l-2.408-1.788C14.318,17.4,13.203,16.999,12,16.999 S9.682,17.4,8.766,18.081l-2.408,1.788C5.822,20.267,5.172,20.5,4.471,20.5c-1.791,0-3.248-1.518-3.293-3.412 c-0.027-0.491-0.041-0.984-0.041-1.48c0-3.354,0.598-6.56,1.688-9.504C3.357,4.583,4.736,3.5,6.354,3.5 c0.313,0,0.615,0.04,0.906,0.117l2.02,0.53C10.15,4.377,11.061,4.499,12,4.499L12,4.499z M12,15c-0.799,0-1.58,0.135-2.328,0.385 c-0.758,0.253-1.463,0.626-2.094,1.095L5.17,18.268C4.953,18.429,4.74,18.5,4.471,18.5c-0.838,0-1.262-0.757-1.301-1.514 c-0.025-0.468-0.033-0.91-0.033-1.379c0-1.542,0.135-3.048,0.393-4.502c0.266-1.493,0.66-2.937,1.17-4.314 C4.881,6.079,5.613,5.5,6.354,5.5c0.164,0,0.238,0.005,0.398,0.046l2.02,0.531C9.797,6.348,10.939,6.499,12,6.499 s2.203-0.151,3.229-0.422l2.02-0.531c0.16-0.041,0.234-0.046,0.398-0.046c0.74,0,1.473,0.579,1.654,1.291 c0.51,1.378,0.904,2.821,1.17,4.314c0.258,1.454,0.393,2.96,0.393,4.502c0,0.469-0.008,0.911-0.033,1.379 c-0.039,0.757-0.463,1.514-1.301,1.514c-0.27,0-0.482-0.071-0.699-0.232l-2.408-1.788c-0.631-0.469-1.336-0.842-2.094-1.095 C13.58,15.135,12.799,15,12,15z"/>
</svg>