<svg xmlns="http://www.w3.org/2000/svg" width="24" height="24" viewBox="0 0 24 24" fill="#00768E">
  <path fill-rule="evenodd" d="M2,2.998h2.001V5H2V2.998L2,2.998z M7,9.998h3v7h3v-7h3v-3H7V9.998L7,9.998z M19.001,13v-2.002h2.002V13H19.001L19.001,13z M2,13v-2.002h2.001V13H2L2,13z M14.998,18.994H17v2.002h-2.002V18.994L14.998,18.994 z M14.998,2.996H17v2h-2.002V2.996L14.998,2.996z M6,18.996h2.002v2H6V18.996L6,18.996z M6,2.998h2.002v2H6V2.998L6,2.998z M19.003,9V6.998h2.001V9H19.003L19.003,9z M2.001,9V6.998h2.002V9H2.001L2.001,9z M19,18.996h2.001v2H19V18.996L19,18.996z M19,2.998h2.001v2H19V2.998L19,2.998z M19.003,17v-2.002h2.001V17H19.003L19.003,17z M2.001,17v-2.002h2.002V17H2.001L2.001,17z M10,18.996h3v2h-3V18.996L10,18.996z M10,2.998h3v2h-3V2.998L10,2.998z M2,18.996h2.001v2.002H2V18.996z" clip-rule="evenodd"/>
</svg>