<svg xmlns="http://www.w3.org/2000/svg" width="24px" height="24px" x="0px" y="0px" fill="#00768E">
  <path fill-rule="evenodd" d="M8,7C9.105,7,10,7.896,10,9v5C10,15.104,9.105,16,8,16c-1.104,0-2-0.896-2-2V9 C6,7.896,6.896,7,8,7L8,7z M14,14L12,14c0,2.209-1.791,4-4,4S4,16.208,4,14H2c0,2.97,2.16,5.439,5,5.92V22h2V19.92 C11.84,19.44,14,16.97,14,14L14,14z M21.41,9.41l-4.24,4.251L18.18,10H14c-1.105,0-2-0.896-2-2V4c0-1.104,0.895-2,2-2L20,2 C21.104,2,22,2.896,22,4V8C22,8.55,21.779,9.05,21.41,9.41z" clip-rule="evenodd"/>
</svg>