<svg xmlns="http://www.w3.org/2000/svg" width="24" height="24" viewBox="0 0 24 24" fill="#00768E">
  <path fill-rule="evenodd" d="M11.99,1.997c-5.52,0-9.99,4.48-9.99,10c0,5.52,4.471,10,9.99,10 c5.529,0,10.01-4.48,10.01-10C22,6.477,17.52,1.997,11.99,1.997L11.99,1.997z M18.92,7.997h-2.951 c-0.318-1.25-0.779-2.45-1.379-3.56C16.43,5.067,17.959,6.347,18.92,7.997L18.92,7.997z M12,4.037c0.83,1.2,1.48,2.53,1.91,3.96 h-3.82C10.52,6.567,11.17,5.237,12,4.037L12,4.037z M4.26,13.997c-0.16-0.641-0.26-1.31-0.26-2c0-0.69,0.1-1.36,0.26-2h3.379 c-0.08,0.66-0.139,1.32-0.139,2c0,0.68,0.061,1.34,0.139,2H4.26L4.26,13.997z M5.08,15.997h2.949c0.32,1.25,0.781,2.45,1.381,3.56 C7.57,18.927,6.039,17.657,5.08,15.997L5.08,15.997z M8.029,7.997H5.08c0.959-1.66,2.49-2.93,4.33-3.56 C8.811,5.547,8.35,6.747,8.029,7.997L8.029,7.997z M12,19.957c-0.83-1.2-1.48-2.53-1.91-3.96h3.82 C13.48,17.427,12.83,18.757,12,19.957L12,19.957z M14.34,13.997H9.66c-0.09-0.66-0.16-1.32-0.16-2c0-0.68,0.07-1.35,0.16-2h4.68 c0.09,0.65,0.16,1.32,0.16,2C14.5,12.677,14.43,13.337,14.34,13.997L14.34,13.997z M14.59,19.557c0.6-1.11,1.061-2.31,1.379-3.56 h2.951C17.959,17.647,16.43,18.927,14.59,19.557L14.59,19.557L14.59,19.557z M16.359,13.997c0.08-0.66,0.141-1.32,0.141-2 c0-0.68-0.061-1.34-0.141-2h3.381c0.16,0.64,0.26,1.31,0.26,2c0,0.69-0.1,1.359-0.26,2H16.359z" clip-rule="evenodd"/>
</svg>