<svg xmlns="http://www.w3.org/2000/svg" width="24" height="24" viewBox="0 0 24 24" fill="#00768E">
  <path fill-rule="evenodd" d="M20.002,5H4C2.891,5,2,5.9,2,7v10c0,1.1,0.891,2,2,2h16.002c1.1,0,2-0.9,2-2 V7C22.002,5.9,21.111,5,20.002,5L20.002,5z M7.5,9h2c0.826,0,1.5,0.674,1.5,1.5v3c0,0.826-0.674,1.5-1.5,1.5h-2 C6.676,15,6,14.326,6,13.5v-3C6,9.674,6.676,9,7.5,9L7.5,9z M13.002,9h1.5v2h0.545L16.5,9H18l-1.998,2.75L18,15h-1.5l-1.537-2.5 h-0.461V15h-1.5V9L13.002,9z M7.5,10.5h2v3h-2V10.5z" clip-rule="evenodd"/>
</svg>