<svg xmlns="http://www.w3.org/2000/svg" width="24" height="24" viewBox="0 0 24 24" fill="#00768E">
  <path fill-rule="evenodd" d="M12,2.001C6.48,2.001,2,6.48,2,12c0,5.521,4.48,10,10,10 c5.521,0,9.999-4.479,9.999-10C21.999,6.48,17.521,2.001,12,2.001L12,2.001z M11,18.502V17l-2.5,0.002v-2H14v-2.001L10,13 c-1.104,0-2-0.896-2-2V9c0-1.104,0.896-2,2-2h1V5.5h2V7h2.5v2H10v2l4.003,0.001c1.072,0,1.947,0.845,1.997,1.904v2.19 C15.95,16.156,15.075,17,14.003,17H13v1.502H11L11,18.502z M12,20.002c-4.41,0-8-3.592-8-8.002c0-4.409,3.59-8,8-8 c4.409,0,8,3.591,8,8C20,16.41,16.409,20.002,12,20.002z" clip-rule="evenodd"/>
</svg>