<svg xmlns="http://www.w3.org/2000/svg" width="24" height="24" viewBox="0 0 24 24" fill="#00768E">
  <path fill-rule="evenodd" d="M12 2h.085c.283.03.505.272.504.564 0 .043-.006.085-.015.125h.002c-.083.756.412 1.472 1.172 1.646.76.173 1.516-.257 1.77-.975l.002.002c.01-.04.023-.08.042-.118.132-.276.457-.396.735-.274 1.397.666 2.616 1.648 3.564 2.854.16.24.112.57-.12.755-.033.025-.07.048-.105.065v.003c-.644.406-.895 1.24-.556 1.942.338.702 1.146 1.025 1.864.775l.002.003c.037-.018.076-.03.118-.04.302-.07.604.116.676.417.168.725.256 1.48.256 2.255 0 .774-.088 1.528-.255 2.252-.07.304-.374.492-.677.422-.042-.01-.082-.023-.118-.04h-.002c-.72-.248-1.526.075-1.865.777-.338.703-.087 1.537.557 1.943v.003c.035.018.07.04.104.066.232.184.28.514.12.755-.948 1.204-2.166 2.186-3.564 2.852-.278.123-.605.003-.738-.273-.018-.038-.032-.078-.04-.118h-.004c-.253-.718-1.01-1.148-1.77-.975s-1.255.89-1.172 1.646l-.003.002c.01.04.014.08.014.124 0 .292-.22.533-.504.563H12c-1.572 0-3.06-.363-4.384-1.01-.266-.143-.374-.47-.24-.744.018-.04.04-.074.065-.106v-.002c.403-.646.27-1.506-.342-1.992-.61-.486-1.48-.428-2.02.11-.026.03-.056.06-.09.088-.23.184-.557.16-.758-.047-.96-1.182-1.653-2.587-1.994-4.125-.05-.295.138-.58.433-.646.04-.01.082-.015.123-.015v-.002C3.55 13.423 4.14 12.78 4.14 12s-.59-1.423-1.346-1.51v-.002c-.04 0-.083-.005-.124-.014-.295-.066-.483-.352-.433-.646.34-1.538 1.035-2.943 1.994-4.125.202-.207.53-.23.76-.047.033.026.063.057.088.09l.003-.003c.54.538 1.41.598 2.02.11.61-.485.745-1.347.34-1.992h.002c-.026-.032-.048-.068-.067-.106-.133-.274-.024-.602.24-.744C8.94 2.363 10.43 2 12 2zm0 6.836c1.747 0 3.164 1.417 3.164 3.164S13.747 15.164 12 15.164c-1.748 0-3.164-1.417-3.164-3.164S10.252 8.836 12 8.836z" clip-rule="evenodd"/>
</svg>