<svg xmlns="http://www.w3.org/2000/svg" width="24" height="24" viewBox="0 0 24 24" fill="#00768E">
  <path fill-rule="evenodd" d="M9.252,2.744c3.613,0,6.588,2.738,6.959,6.254 C16.143,8.996,16.072,8.994,16,8.994c-3.865,0-7,3.135-7,7c0,0.252,0.014,0.502,0.041,0.746c-3.77-0.111-6.789-3.201-6.789-6.996 C2.252,5.879,5.385,2.744,9.252,2.744L9.252,2.744z M16,10.994c-2.76,0-5,2.238-5,5s2.24,5,5,5c2.762,0,5-2.238,5-5 S18.762,10.994,16,10.994L16,10.994z M11.098,20.988c-0.66,0.479-1.471,0.762-2.348,0.762c-2.209,0-4-1.791-4-4 c0-0.07,0.002-0.139,0.006-0.207c1.322,0.764,2.857,1.201,4.496,1.201c0.102,0,0.205-0.002,0.309-0.004 C9.922,19.59,10.447,20.352,11.098,20.988L11.098,20.988z M16.25,3.25c-0.244,0-0.484,0.016-0.721,0.047 c1.594,1.553,2.615,3.689,2.713,6.064c1.125,0.381,2.121,1.037,2.906,1.891c0.385-0.75,0.602-1.6,0.602-2.502 C21.75,5.713,19.287,3.25,16.25,3.25z" clip-rule="evenodd"/>
</svg>