<svg xmlns="http://www.w3.org/2000/svg" width="24px" height="24px" viewBox="0 0 24 24" fill="#00768E">
  <path fill-rule="evenodd" d="M12 2.107c-1.925 0-3.718.548-5.243 1.48C8.72 3.324 10.11 4.07 12 5.006c1.89-.935 3.28-1.682 5.244-1.42-1.526-.932-3.32-1.48-5.244-1.48zm0 19.786c-2.544 0-4.867-.948-6.63-2.494C3.88 18.09 8.56 12.54 12 9.99c3.44 2.55 8.12 8.102 6.63 9.408-1.762 1.546-4.086 2.495-6.63 2.495zm2.692-14.365c1.33-1.253 3.358-3.015 4.267-2.62C20.83 6.71 22 9.217 22 12.002c0 2.31-.804 4.425-2.14 6.108.742-2.77-2.914-7.717-5.168-10.58zm-5.384 0c-2.254 2.863-5.91 7.81-5.168 10.58C2.805 16.425 2 14.308 2 12c0-2.784 1.17-5.293 3.04-7.09.91-.397 2.94 1.364 4.268 2.618z" clip-rule="evenodd"/>
</svg>