<svg xmlns="http://www.w3.org/2000/svg" width="24px" height="24px" x="0px" y="0px" fill="#00768E">
  <path fill-rule="evenodd" d="M21.41,9.41l-4.238,4.251l1.01-3.66h-4.18c-1.105,0-2-0.896-2-2V4 c0-1.104,0.895-2,2-2l6,0.001c1.104-0.001,2,0.896,2,1.999V8C22.002,8.55,21.781,9.05,21.41,9.41L21.41,9.41z M2.002,18.25v-4.5h3 l4-3.751v12l-4-3.749H2.002L2.002,18.25z M10.252,10.967v2.018c1.109,0.548,1.875,1.688,1.875,3.015s-0.766,2.468-1.875,3.022v2.011 c2.168-0.646,3.75-2.655,3.75-5.033S12.42,11.612,10.252,10.967z" clip-rule="evenodd"/>
</svg>