<svg xmlns="http://www.w3.org/2000/svg" width="24px" height="24px" x="0px" y="0px" fill="#00768E"><path fill-rule="evenodd" d="M20.998,11.999c-1.652,0-3-1.347-3-3v-3h-2v-2h1c1.652,0,3,1.348,3,3v2 c0,1.102,0.898,2,2,2v2c-1.102,0-2,0.898-2,2v2c0,1.652-1.348,3-3,3h-1v-2h2v-3C17.998,13.346,19.346,11.999,20.998,11.999 L20.998,11.999z M11.004,12.999h2v1.999h-2V12.999L11.004,12.999z M11.004,8.999h2v2h-2V8.999L11.004,8.999z M3.002,11.999 c1.652,0,3-1.347,3-3v-3h2v-2h-1c-1.652,0-3,1.348-3,3v2c0,1.102-0.898,2-2,2v2c1.102,0,2,0.898,2,2v2c0,1.652,1.348,3,3,3h1v-2h-2 v-3C6.002,13.346,4.654,11.999,3.002,11.999z" clip-rule="evenodd"/></svg>