<svg xmlns="http://www.w3.org/2000/svg" width="24" height="24" viewBox="0 0 24 24" fill="#00768E">
  <path fill-rule="evenodd" d="M15.754 8.249L18.004 5.998 21.004 8.999 21.004 16.748 18.004 16.748 18.004 10.499 15.754 8.249 14.504 9.499 16.754 11.748 16.754 15.748 12.504 11.498 11.504 12.498 15.754 16.748 11.754 16.748 9.504 14.498 8.254 15.748 10.504 18 21 18.006 24 21.006 9.004 20.998 6.008 17.998 8.254 15.748 3.004 10.498 3.004 7.248 6.004 7.248 6.004 8.998 8.255 11.249 11.254 8.249 9.004 5.998 3.004 5.998 0.004 2.998 10.504 2.998" clip-rule="evenodd"/>
</svg>